<svg width="35" height="27" viewBox="0 0 35 27" fill="none" xmlns="http://www.w3.org/2000/svg">
<path d="M11.3333 6.64472C11.3333 3.23924 14.0936 0.477005 17.5001 0.477005C20.9085 0.477005 23.6668 3.23924 23.6668 6.64472C23.6668 10.0522 20.9085 12.8124 17.5001 12.8124C14.0936 12.8124 11.3333 10.0531 11.3333 6.64472ZM34.9736 18.2545L34.1117 13.087C33.9568 12.1515 33.1694 11.3671 32.2526 11.1416C31.4328 11.8672 30.3581 12.3094 29.1775 12.3094C27.9979 12.3094 26.9222 11.8662 26.1035 11.1416C25.1837 11.3661 24.3983 12.1515 24.2434 13.087L24.2228 13.2086C23.7109 12.7154 23.0755 12.3447 22.3911 12.177C21.0869 13.3302 19.3788 14.0362 17.501 14.0362C15.6233 14.0362 13.9151 13.3302 12.611 12.177C11.9266 12.3447 11.2912 12.7154 10.7793 13.2086L10.7587 13.087C10.6038 12.1515 9.81542 11.3671 8.8986 11.1416C8.07983 11.8672 7.00416 12.3094 5.82454 12.3094C4.64395 12.3094 3.56926 11.8662 2.74951 11.1416C1.83171 11.3661 1.0453 12.1515 0.890374 13.087L0.0284634 18.2545C-0.156862 19.3635 0.612876 20.2715 1.73562 20.2715H8.81721L8.27986 23.4907C7.9857 25.2547 9.20943 26.6981 10.997 26.6981H24.0041C25.7917 26.6981 27.0154 25.2518 26.7212 23.4907L26.1839 20.2715H33.2655C34.3892 20.2696 35.158 19.3635 34.9736 18.2545ZM29.1765 11.5426C31.3181 11.5426 33.0537 9.80702 33.0537 7.66548C33.0537 5.52492 31.3171 3.78835 29.1765 3.78835C27.036 3.78835 25.3004 5.52492 25.3004 7.66548C25.3004 9.80702 27.0379 11.5426 29.1765 11.5426ZM5.82258 11.5426C7.96314 11.5426 9.69873 9.80702 9.69873 7.66548C9.69873 5.52492 7.96216 3.78835 5.82258 3.78835C3.68104 3.78835 1.94546 5.52492 1.94546 7.66548C1.94546 9.80702 3.68202 11.5426 5.82258 11.5426Z" fill="#15803D"/>
</svg>
