<svg width="35" height="27" viewBox="0 0 35 27" fill="none" xmlns="http://www.w3.org/2000/svg">
<path d="M1.87694 13.2504C1.93948 12.8727 2.21271 12.5024 2.58143 12.2813C3.4975 12.9264 4.61535 13.3094 5.82454 13.3094C7.03195 13.3094 8.15042 12.9277 9.06671 12.2819C9.43628 12.5036 9.70981 12.874 9.77215 13.2504L9.77275 13.254L9.79335 13.3756L10.1095 15.2427L11.4732 13.9287C11.7503 13.6616 12.068 13.4471 12.4026 13.3005C13.8137 14.3844 15.579 15.0362 17.501 15.0362C19.4231 15.0362 21.1883 14.3844 22.5995 13.3005C22.9341 13.4471 23.2518 13.6616 23.5289 13.9287L24.8925 15.2426L25.2087 13.3756L25.2293 13.254L25.2299 13.2504C25.2925 12.8724 25.5655 12.5021 25.9348 12.2811C26.8507 12.9265 27.9693 13.3094 29.1775 13.3094C30.3861 13.3094 31.504 12.9275 32.4204 12.2818C32.7895 12.5034 33.0627 12.8736 33.1251 13.2504L33.1253 13.2515L33.9871 18.4185C34.07 18.9169 33.7724 19.2702 33.2646 19.2715C33.2643 19.2715 33.264 19.2715 33.2637 19.2715L26.1839 19.2715H25.0031L25.1975 20.4362L25.7349 23.6554L25.7349 23.6555C25.9272 24.8069 25.1736 25.6981 24.0041 25.6981H10.997C9.8271 25.6981 9.07385 24.8094 9.26622 23.6554C9.26623 23.6553 9.26623 23.6553 9.26624 23.6552L9.80356 20.4362L9.99797 19.2715H8.81721H1.73562C1.23094 19.2715 0.931349 18.9187 1.01479 18.4194L1.01484 18.4191L1.87675 13.2515L1.87694 13.2504ZM12.3333 6.64472C12.3333 3.79121 14.6462 1.47701 17.5001 1.47701C20.3557 1.47701 22.6668 3.79101 22.6668 6.64472C22.6668 9.50019 20.3559 11.8124 17.5001 11.8124C14.6459 11.8124 12.3333 9.50085 12.3333 6.64472ZM32.0537 7.66548C32.0537 9.25473 30.7658 10.5426 29.1765 10.5426C27.5901 10.5426 26.3004 9.25457 26.3004 7.66548C26.3004 6.07687 27.5886 4.78835 29.1765 4.78835C30.7648 4.78835 32.0537 6.07721 32.0537 7.66548ZM8.69873 7.66548C8.69873 9.2549 7.41069 10.5426 5.82258 10.5426C4.23414 10.5426 2.94546 9.25457 2.94546 7.66548C2.94546 6.07704 4.23349 4.78835 5.82258 4.78835C7.40971 4.78835 8.69873 6.07704 8.69873 7.66548Z" stroke="#CCCCCC" stroke-width="2"/>
<line x1="10.9362" y1="14.3166" x2="9.91585" y2="19.7995" stroke="#CCCCCC" stroke-width="2"/>
<line x1="23.9549" y1="14.0083" x2="24.8789" y2="19.5083" stroke="#CCCCCC" stroke-width="2"/>
</svg>
