<svg width="32" height="26" viewBox="0 0 32 26" fill="none" xmlns="http://www.w3.org/2000/svg">
<path d="M32 13.5016C32 14.3975 31.2737 15.1246 30.377 15.1246C30.3738 15.1246 30.3673 15.1246 30.3608 15.1246H27.2731V23.7563C27.2731 24.6522 26.546 25.3793 25.6502 25.3793H20.3204C19.4245 25.3793 18.6974 24.6522 18.6974 23.7563V19.1812C18.6974 17.6897 17.4834 16.4765 15.9927 16.4765C14.5012 16.4765 13.2873 17.6897 13.2873 19.1812V23.7563C13.2873 24.6522 12.5602 25.3793 11.6643 25.3793H6.33368C5.4378 25.3793 4.71071 24.6522 4.71071 23.7563V15.1246H1.62303C0.93814 15.1246 0.326284 14.6961 0.0958234 14.0518C-0.135449 13.4067 0.0609297 12.6869 0.587581 12.2503L14.9573 0.371861C15.5578 -0.123954 16.4261 -0.123954 17.0257 0.371861L31.2632 12.14C31.7062 12.4305 32 12.932 32 13.5016Z" fill="#15803D"/>
</svg>
