<svg width="32" height="26" viewBox="0 0 32 26" fill="none" xmlns="http://www.w3.org/2000/svg">
<path d="M27.2731 14.1246H26.2731V15.1246V23.7563C26.2731 24.0999 25.9938 24.3793 25.6502 24.3793H20.3204C19.9768 24.3793 19.6974 24.0999 19.6974 23.7563V19.1812C19.6974 17.1372 18.0355 15.4765 15.9927 15.4765C13.9493 15.4765 12.2873 17.137 12.2873 19.1812V23.7563C12.2873 24.0999 12.0079 24.3793 11.6643 24.3793H6.33368C5.99009 24.3793 5.71071 24.0999 5.71071 23.7563V15.1246V14.1246H4.71071H1.62303C1.3578 14.1246 1.12466 13.959 1.0374 13.715L1.03716 13.7143C0.947551 13.4644 1.02393 13.1879 1.22528 13.0206C1.22545 13.0205 1.22561 13.0203 1.22578 13.0202L15.594 1.14298C15.8251 0.952134 16.1589 0.952688 16.3885 1.14256L16.3886 1.14264L30.6261 12.9107L30.6687 12.9459L30.7149 12.9762C30.8889 13.0903 31 13.2841 31 13.5016C31 13.8455 30.7211 14.1246 30.377 14.1246H30.377H30.377H30.377H30.377H30.3769H30.3769H30.3769H30.3769H30.3769H30.3768H30.3768H30.3768H30.3768H30.3768H30.3767H30.3767H30.3767H30.3767H30.3767H30.3766H30.3766H30.3766H30.3766H30.3766H30.3765H30.3765H30.3765H30.3765H30.3765H30.3764H30.3764H30.3764H30.3764H30.3763H30.3763H30.3763H30.3763H30.3763H30.3762H30.3762H30.3762H30.3762H30.3762H30.3761H30.3761H30.3761H30.3761H30.376H30.376H30.376H30.376H30.376H30.3759H30.3759H30.3759H30.3759H30.3758H30.3758H30.3758H30.3758H30.3757H30.3757H30.3757H30.3757H30.3757H30.3756H30.3756H30.3756H30.3756H30.3755H30.3755H30.3755H30.3755H30.3754H30.3754H30.3754H30.3754H30.3753H30.3753H30.3753H30.3753H30.3752H30.3752H30.3752H30.3752H30.3751H30.3751H30.3751H30.3751H30.375H30.375H30.375H30.375H30.3749H30.3749H30.3749H30.3749H30.3748H30.3748H30.3748H30.3748H30.3747H30.3747H30.3747H30.3747H30.3746H30.3746H30.3746H30.3746H30.3745H30.3745H30.3745H30.3744H30.3744H30.3744H30.3744H30.3743H30.3743H30.3743H30.3743H30.3742H30.3742H30.3742H30.3742H30.3741H30.3741H30.3741H30.374H30.374H30.374H30.374H30.3739H30.3739H30.3739H30.3739H30.3738H30.3738H30.3738H30.3737H30.3737H30.3737H30.3737H30.3736H30.3736H30.3736H30.3735H30.3735H30.3735H30.3735H30.3734H30.3734H30.3734H30.3733H30.3733H30.3733H30.3733H30.3732H30.3732H30.3732H30.3731H30.3731H30.3731H30.3731H30.373H30.373H30.373H30.3729H30.3729H30.3729H30.3729H30.3728H30.3728H30.3728H30.3727H30.3727H30.3727H30.3726H30.3726H30.3726H30.3726H30.3725H30.3725H30.3725H30.3724H30.3724H30.3724H30.3723H30.3723H30.3723H30.3722H30.3722H30.3722H30.3722H30.3721H30.3721H30.3721H30.372H30.372H30.372H30.3719H30.3719H30.3719H30.3718H30.3718H30.3718H30.3718H30.3717H30.3717H30.3717H30.3716H30.3716H30.3716H30.3715H30.3715H30.3715H30.3714H30.3714H30.3714H30.3713H30.3713H30.3713H30.3713H30.3712H30.3712H30.3712H30.3711H30.3711H30.3711H30.371H30.371H30.371H30.3709H30.3709H30.3709H30.3708H30.3708H30.3708H30.3707H30.3707H30.3707H30.3706H30.3706H30.3706H30.3705H30.3705H30.3705H30.3704H30.3704H30.3704H30.3703H30.3703H30.3703H30.3702H30.3702H30.3702H30.3701H30.3701H30.3701H30.37H30.37H30.37H30.3699H30.3699H30.3699H30.3698H30.3698H30.3698H30.3697H30.3697H30.3697H30.3696H30.3696H30.3696H30.3695H30.3695H30.3695H30.3694H30.3694H30.3694H30.3693H30.3693H30.3693H30.3692H30.3692H30.3692H30.3691H30.3691H30.3691H30.369H30.369H30.369H30.3689H30.3689H30.3689H30.3688H30.3688H30.3687H30.3687H30.3687H30.3686H30.3686H30.3686H30.3685H30.3685H30.3685H30.3684H30.3684H30.3684H30.3683H30.3683H30.3683H30.3682H30.3682H30.3682H30.3681H30.3681H30.368H30.368H30.368H30.3679H30.3679H30.3679H30.3678H30.3678H30.3678H30.3677H30.3677H30.3677H30.3676H30.3676H30.3676H30.3675H30.3675H30.3674H30.3674H30.3674H30.3673H30.3673H30.3673H30.3672H30.3672H30.3672H30.3671H30.3671H30.3671H30.367H30.367H30.3669H30.3669H30.3669H30.3668H30.3668H30.3668H30.3667H30.3667H30.3667H30.3666H30.3666H30.3665H30.3665H30.3665H30.3664H30.3664H30.3664H30.3663H30.3663H30.3663H30.3662H30.3662H30.3661H30.3661H30.3661H30.366H30.366H30.366H30.3659H30.3659H30.3658H30.3658H30.3658H30.3657H30.3657H30.3657H30.3656H30.3656H30.3656H30.3655H30.3655H30.3654H30.3654H30.3654H30.3653H30.3653H30.3653H30.3652H30.3652H30.3651H30.3651H30.3651H30.365H30.365H30.365H30.3649H30.3649H30.3649H30.3648H30.3648H30.3647H30.3647H30.3647H30.3646H30.3646H30.3646H30.3645H30.3645H30.3644H30.3644H30.3644H30.3643H30.3643H30.3643H30.3642H30.3642H30.3641H30.3641H30.3641H30.364H30.364H30.364H30.3639H30.3639H30.3638H30.3638H30.3638H30.3637H30.3637H30.3637H30.3636H30.3636H30.3635H30.3635H30.3635H30.3634H30.3634H30.3634H30.3633H30.3633H30.3632H30.3632H30.3632H30.3631H30.3631H30.3631H30.363H30.363H30.3629H30.3629H30.3629H30.3628H30.3628H30.3627H30.3627H30.3627H30.3626H30.3626H30.3626H30.3625H30.3625H30.3624H30.3624H30.3624H30.3623H30.3623H30.3623H30.3622H30.3622H30.3621H30.3621H30.3621H30.362H30.362H30.362H30.3619H30.3619H30.3618H30.3618H30.3618H30.3617H30.3617H30.3616H30.3616H30.3616H30.3615H30.3615H30.3615H30.3614H30.3614H30.3613H30.3613H30.3613H30.3612H30.3612H30.3612H30.3611H30.3611H30.361H30.361H30.361H30.3609H30.3609H30.3608H30.3608H27.2731Z" stroke="#CCCCCC" stroke-width="2"/>
</svg>
