<svg width="32" height="28" viewBox="0 0 32 28" fill="none" xmlns="http://www.w3.org/2000/svg">
<path d="M5.90583 13.6192H1.00414C0.449588 13.6192 0 14.0687 0 14.6234V26.3302C0 26.8849 0.449588 27.3343 1.00414 27.3343H5.90583C6.46038 27.3343 6.90997 26.8849 6.90997 26.3302V14.6234C6.90997 14.0688 6.46038 13.6192 5.90583 13.6192ZM4.90169 25.3262H2.00828V15.6277H4.90169V25.3262V25.3262Z" fill="#15803D"/>
<path d="M22.6305 7.892H17.729C17.1744 7.892 16.7249 8.34145 16.7249 8.89614V26.3303C16.7249 26.885 17.1744 27.3345 17.729 27.3345H22.6305C23.1851 27.3345 23.6347 26.885 23.6347 26.3303V8.89614C23.6347 8.34145 23.1851 7.892 22.6305 7.892ZM21.6264 25.3262H18.7331V9.90028H21.6264V25.3262Z" fill="#15803D"/>
<path d="M14.2674 5.59653H9.36706C8.8125 5.59653 8.36292 6.04598 8.36292 6.60067V26.3302C8.36292 26.8849 8.8125 27.3343 9.36706 27.3343H14.2675C14.8221 27.3343 15.2717 26.8849 15.2717 26.3302V6.60067C15.2715 6.04611 14.8221 5.59653 14.2674 5.59653ZM13.2633 25.3262H10.3712V7.60481H13.2634V25.3262H13.2633Z" fill="#15803D"/>
<path d="M30.9958 0.665527H26.0936C25.5391 0.665527 25.0895 1.11498 25.0895 1.66967V26.3302C25.0895 26.8849 25.5391 27.3343 26.0936 27.3343H30.9958C31.5504 27.3343 32 26.8849 32 26.3302V1.66967C32 1.11512 31.5504 0.665527 30.9958 0.665527ZM29.9917 25.3262H27.0978V2.67381H29.9917V25.3262Z" fill="#15803D"/>
<line x1="28.5" y1="2" x2="28.5" y2="27" stroke="#15803D" stroke-width="5"/>
<line x1="20.5" y1="9" x2="20.5" y2="26" stroke="#15803D" stroke-width="5"/>
<line x1="12.5" y1="7" x2="12.5" y2="26" stroke="#15803D" stroke-width="5"/>
<line x1="3.5" y1="15" x2="3.5" y2="27" stroke="#15803D" stroke-width="5"/>
</svg>
