<svg width="120" height="120" viewBox="0 0 120 120" fill="none" xmlns="http://www.w3.org/2000/svg">
<path d="M60 0C26.8631 0 0 26.8631 0 60C0 93.1369 26.8631 120 60 120C93.1369 120 120 93.1369 120 60C120 26.8631 93.1369 0 60 0ZM94.6758 50.6598L58.272 87.0664C56.0273 89.3111 53.0428 90.5478 49.8692 90.5478C46.6955 90.5478 43.7111 89.3111 41.4664 87.0664L25.3242 70.9242C22.9807 68.5807 21.6904 65.4607 21.6904 62.1402C21.6904 58.8198 22.9807 55.6998 25.3242 53.3562C27.6706 51.0099 30.7906 49.7167 34.1082 49.7167C37.4259 49.7167 40.5459 51.0099 42.8922 53.3562L49.8692 60.3304L77.1078 33.0918C79.4541 30.7454 82.5741 29.4522 85.8918 29.4522C89.2094 29.4522 92.3294 30.7454 94.6758 33.0918C97.0193 35.4353 98.3096 38.5553 98.3096 41.8758C98.3096 45.1962 97.0193 48.3162 94.6758 50.6598Z" fill="#16A34A"/>
</svg>
